<svg xmlns="http://www.w3.org/2000/svg" viewBox="0 0 1024 637">
<path d="M 707 611 L 708 610 L 713 610 L 714 611 L 713 612 L 713 616 L 711 618 L 710 618 L 709 619 L 707 619 L 704 616 L 704 615 L 703 614 L 706 611 Z" fill="black"/>
<path d="M 645 611 L 646 610 L 650 610 L 652 612 L 651 613 L 651 614 L 652 615 L 649 618 L 647 618 L 646 619 L 645 619 L 644 618 L 643 618 L 641 616 L 641 613 L 643 611 Z" fill="black"/>
<path d="M 447 611 L 448 610 L 452 610 L 453 611 L 453 616 L 452 617 L 451 617 L 450 618 L 449 618 L 448 619 L 446 619 L 443 616 L 443 613 L 445 611 Z" fill="black"/>
<path d="M 555 600 L 558 600 L 561 603 L 561 604 L 562 605 L 562 607 L 561 608 L 552 608 L 551 607 L 551 604 Z" fill="black"/>
<path d="M 512 600 L 513 601 L 514 600 L 515 601 L 516 601 L 518 603 L 518 604 L 519 605 L 519 607 L 518 608 L 509 608 L 508 607 L 508 604 Z" fill="black"/>
<path d="M 381 600 L 385 600 L 386 601 L 387 601 L 389 603 L 389 616 L 387 618 L 386 618 L 385 619 L 381 619 L 377 615 L 377 612 L 376 611 L 376 608 L 377 607 L 377 605 L 378 604 L 378 603 Z" fill="black"/>
<path d="M 355 601 L 356 600 L 358 600 L 359 601 L 360 601 L 361 602 L 361 603 L 362 604 L 362 607 L 361 608 L 352 608 L 351 607 L 351 604 L 354 601 Z" fill="black"/>
<path d="M 509 600 L 504 605 L 504 610 L 503 611 L 504 612 L 504 615 L 505 616 L 505 617 L 507 619 L 508 619 L 509 620 L 512 620 L 513 621 L 514 620 L 518 620 L 519 619 L 520 619 L 522 617 L 520 617 L 519 618 L 518 618 L 517 619 L 514 619 L 513 618 L 512 618 L 511 617 L 510 617 L 509 616 L 509 615 L 508 614 L 508 613 L 507 612 L 507 610 L 508 609 L 523 609 L 523 605 L 521 603 L 521 602 L 520 602 L 518 600 Z" fill="black"/>
<path d="M 476 600 L 479 603 L 479 604 L 480 605 L 480 606 L 481 607 L 481 608 L 482 609 L 482 611 L 483 612 L 483 613 L 484 614 L 484 615 L 485 616 L 485 618 L 486 619 L 486 620 L 489 620 L 489 619 L 490 618 L 490 617 L 491 616 L 491 614 L 492 613 L 492 612 L 494 610 L 494 608 L 495 607 L 495 605 L 496 604 L 496 603 L 499 600 L 492 600 L 493 600 L 495 602 L 494 603 L 494 604 L 493 605 L 493 607 L 492 608 L 492 609 L 491 610 L 491 612 L 490 613 L 490 614 L 489 615 L 488 615 L 487 614 L 487 612 L 486 611 L 486 609 L 485 608 L 485 607 L 484 606 L 484 604 L 483 603 L 483 602 L 485 600 Z" fill="black"/>
<path d="M 421 600 L 417 604 L 417 605 L 416 606 L 416 613 L 417 614 L 417 617 L 418 618 L 419 618 L 421 620 L 423 620 L 424 621 L 427 621 L 428 620 L 431 620 L 432 619 L 433 619 L 434 618 L 434 617 L 432 617 L 431 618 L 430 618 L 429 619 L 426 619 L 425 618 L 424 618 L 421 615 L 421 614 L 420 613 L 420 606 L 421 605 L 421 604 L 424 601 L 428 601 L 432 605 L 433 605 L 434 604 L 434 601 L 433 601 L 432 600 Z" fill="black"/>
<path d="M 709 599 L 708 600 L 705 600 L 704 601 L 703 601 L 702 602 L 702 604 L 703 604 L 705 602 L 706 602 L 707 601 L 711 601 L 713 603 L 713 605 L 714 606 L 714 607 L 712 609 L 708 609 L 707 610 L 704 610 L 703 611 L 702 611 L 700 613 L 700 617 L 701 618 L 701 619 L 702 619 L 703 620 L 705 620 L 706 621 L 707 620 L 710 620 L 712 618 L 713 618 L 715 620 L 719 620 L 720 619 L 721 619 L 721 618 L 718 618 L 717 617 L 717 603 L 716 602 L 716 601 L 715 600 L 713 600 L 712 599 Z" fill="black"/>
<path d="M 691 599 L 690 600 L 685 600 L 685 601 L 687 601 L 688 602 L 688 618 L 687 619 L 686 619 L 685 620 L 695 620 L 695 619 L 693 619 L 692 618 L 692 616 L 691 615 Z" fill="black"/>
<path d="M 676 599 L 675 600 L 674 600 L 672 602 L 672 603 L 671 604 L 670 603 L 670 600 L 663 600 L 664 601 L 665 601 L 666 602 L 666 603 L 667 604 L 667 605 L 666 606 L 667 607 L 667 611 L 666 612 L 666 618 L 665 619 L 664 619 L 664 620 L 672 620 L 673 619 L 671 619 L 670 618 L 670 607 L 671 606 L 671 605 L 674 602 L 676 602 L 677 603 L 678 603 L 679 604 L 680 603 L 680 600 L 679 599 Z" fill="black"/>
<path d="M 646 599 L 645 600 L 643 600 L 642 601 L 641 601 L 640 602 L 640 604 L 641 604 L 643 602 L 644 602 L 645 601 L 648 601 L 651 604 L 651 608 L 650 609 L 648 609 L 647 610 L 641 610 L 640 611 L 639 611 L 638 612 L 638 617 L 639 618 L 639 619 L 640 620 L 647 620 L 648 619 L 649 619 L 650 618 L 651 618 L 653 620 L 655 620 L 656 619 L 659 619 L 658 618 L 656 618 L 655 617 L 655 604 L 654 603 L 654 602 L 652 600 L 650 600 L 649 599 Z" fill="black"/>
<path d="M 621 599 L 620 600 L 619 600 L 618 601 L 617 601 L 616 602 L 614 600 L 609 600 L 608 601 L 610 601 L 611 602 L 611 618 L 610 619 L 608 619 L 607 620 L 617 620 L 617 619 L 616 619 L 615 618 L 615 616 L 614 615 L 614 606 L 615 605 L 615 604 L 616 603 L 617 603 L 618 602 L 619 602 L 620 601 L 622 601 L 625 604 L 625 606 L 626 607 L 626 615 L 625 616 L 625 620 L 632 620 L 632 619 L 630 619 L 629 618 L 629 602 L 627 600 L 626 600 L 625 599 Z" fill="black"/>
<path d="M 597 599 L 596 600 L 593 600 L 593 601 L 595 601 L 596 602 L 596 606 L 597 607 L 597 615 L 596 616 L 596 618 L 595 619 L 594 619 L 594 620 L 603 620 L 603 619 L 602 619 L 600 617 L 600 600 L 599 599 Z" fill="black"/>
<path d="M 584 599 L 582 601 L 581 601 L 579 603 L 578 602 L 578 600 L 572 600 L 572 601 L 574 601 L 575 602 L 575 618 L 574 619 L 573 619 L 572 620 L 580 620 L 580 619 L 578 617 L 578 607 L 580 605 L 580 604 L 582 602 L 583 602 L 584 603 L 585 603 L 586 604 L 587 604 L 588 603 L 588 600 L 587 599 Z" fill="black"/>
<path d="M 556 599 L 555 600 L 552 600 L 550 602 L 549 602 L 549 603 L 548 604 L 548 605 L 547 606 L 547 615 L 552 620 L 561 620 L 562 619 L 563 619 L 564 618 L 565 618 L 565 617 L 563 617 L 562 618 L 555 618 L 551 614 L 551 610 L 552 609 L 566 609 L 566 606 L 565 605 L 565 603 L 562 600 L 560 600 L 559 599 Z" fill="black"/>
<path d="M 449 599 L 448 600 L 445 600 L 444 601 L 443 601 L 442 602 L 441 602 L 441 604 L 442 604 L 444 602 L 445 602 L 446 601 L 450 601 L 452 603 L 452 604 L 453 605 L 453 608 L 452 609 L 446 609 L 445 610 L 443 610 L 442 611 L 441 611 L 440 612 L 440 613 L 439 614 L 439 618 L 441 620 L 444 620 L 445 621 L 446 620 L 449 620 L 450 619 L 451 619 L 452 618 L 453 618 L 454 619 L 454 620 L 456 620 L 457 619 L 459 619 L 459 618 L 457 618 L 456 617 L 456 604 L 455 603 L 455 602 L 453 600 L 451 600 L 450 599 Z" fill="black"/>
<path d="M 406 599 L 405 600 L 401 600 L 401 601 L 403 601 L 404 602 L 404 617 L 402 619 L 400 619 L 400 620 L 410 620 L 411 619 L 409 619 L 408 618 L 408 609 L 407 608 L 408 607 L 408 600 L 407 599 Z" fill="black"/>
<path d="M 355 599 L 354 600 L 352 600 L 348 604 L 348 605 L 347 606 L 347 615 L 352 620 L 355 620 L 356 621 L 358 621 L 359 620 L 361 620 L 362 619 L 363 619 L 364 618 L 365 618 L 365 617 L 364 617 L 363 618 L 361 618 L 360 619 L 357 619 L 356 618 L 355 618 L 351 614 L 351 610 L 352 609 L 366 609 L 366 604 L 365 603 L 365 602 L 364 601 L 363 601 L 362 600 L 361 600 L 360 599 Z" fill="black"/>
<path d="M 534 594 L 532 596 L 532 598 L 530 600 L 528 600 L 528 601 L 530 601 L 531 602 L 531 606 L 532 607 L 532 618 L 534 620 L 540 620 L 541 619 L 542 619 L 543 618 L 542 617 L 541 618 L 537 618 L 535 616 L 535 612 L 534 611 L 534 608 L 535 607 L 535 602 L 536 601 L 538 601 L 539 600 L 540 601 L 541 601 L 542 600 L 536 600 L 535 599 L 535 595 Z" fill="black"/>
<path d="M 305 591 L 307 591 L 309 593 L 309 618 L 308 619 L 306 619 L 305 620 L 313 620 L 313 619 L 312 619 L 311 618 L 311 617 L 310 616 L 311 615 L 311 599 L 312 598 L 314 600 L 314 601 L 315 602 L 315 603 L 316 604 L 316 605 L 317 606 L 317 607 L 319 609 L 319 610 L 320 611 L 320 612 L 322 614 L 323 614 L 325 612 L 325 611 L 326 610 L 326 608 L 328 606 L 328 605 L 329 604 L 329 603 L 330 602 L 330 601 L 331 600 L 331 599 L 333 597 L 334 598 L 334 618 L 333 619 L 332 619 L 331 620 L 340 620 L 340 619 L 339 619 L 337 617 L 337 595 L 338 594 L 338 592 L 339 591 L 340 591 L 333 591 L 333 592 L 332 593 L 332 594 L 331 595 L 331 596 L 330 597 L 330 598 L 329 599 L 329 600 L 328 601 L 328 602 L 327 603 L 327 604 L 325 606 L 325 607 L 324 608 L 322 606 L 322 605 L 320 603 L 320 602 L 319 601 L 319 600 L 318 599 L 318 598 L 317 597 L 317 596 L 315 594 L 315 593 L 314 592 L 314 591 Z" fill="black"/>
<path d="M 688 589 L 687 590 L 687 593 L 688 594 L 691 594 L 692 593 L 692 590 L 691 589 Z" fill="black"/>
<path d="M 651 589 L 650 590 L 650 591 L 647 594 L 647 596 L 648 596 L 654 590 L 654 589 Z" fill="black"/>
<path d="M 404 589 L 403 590 L 403 592 L 404 593 L 405 593 L 406 594 L 407 594 L 408 593 L 408 590 L 407 589 Z" fill="black"/>
<path d="M 390 588 L 389 589 L 385 589 L 386 590 L 388 590 L 389 591 L 389 599 L 388 600 L 387 600 L 386 599 L 381 599 L 380 600 L 378 600 L 377 601 L 376 601 L 374 603 L 374 604 L 373 605 L 373 607 L 372 608 L 372 613 L 373 614 L 373 616 L 377 620 L 378 620 L 379 621 L 383 621 L 384 620 L 386 620 L 388 618 L 389 618 L 390 619 L 390 620 L 396 620 L 396 619 L 395 619 L 393 617 L 393 588 Z" fill="black"/>
<path d="M 177 517 L 178 516 L 179 517 L 179 519 L 178 520 L 178 521 L 177 522 L 177 523 L 176 524 L 176 525 L 175 526 L 175 527 L 174 528 L 174 529 L 173 530 L 173 531 L 172 532 L 172 533 L 171 534 L 171 535 L 170 536 L 170 537 L 169 538 L 169 539 L 168 540 L 168 541 L 166 543 L 166 544 L 165 545 L 165 546 L 163 548 L 163 549 L 160 552 L 160 553 L 159 554 L 159 555 L 158 556 L 158 557 L 155 560 L 155 561 L 152 564 L 152 565 L 151 566 L 151 567 L 145 573 L 145 574 L 138 581 L 137 581 L 136 582 L 136 583 L 135 584 L 134 584 L 132 586 L 131 586 L 129 588 L 128 588 L 126 590 L 125 590 L 124 591 L 123 591 L 122 592 L 120 592 L 119 593 L 116 593 L 115 594 L 112 594 L 111 595 L 104 595 L 103 594 L 101 594 L 100 593 L 99 593 L 95 589 L 95 588 L 94 587 L 94 585 L 93 584 L 93 582 L 94 581 L 94 575 L 95 574 L 95 573 L 96 572 L 96 571 L 97 570 L 97 568 L 99 566 L 99 565 L 101 563 L 101 562 L 106 557 L 106 556 L 107 555 L 108 555 L 116 547 L 117 547 L 120 544 L 121 544 L 124 541 L 125 541 L 127 539 L 128 539 L 129 538 L 130 538 L 132 536 L 133 536 L 134 535 L 135 535 L 137 533 L 138 533 L 139 532 L 140 532 L 141 531 L 142 531 L 143 530 L 144 530 L 145 529 L 146 529 L 147 528 L 148 528 L 149 527 L 150 527 L 151 526 L 153 526 L 154 525 L 155 525 L 156 524 L 157 524 L 158 523 L 160 523 L 161 522 L 162 522 L 163 521 L 165 521 L 166 520 L 167 520 L 168 519 L 170 519 L 171 518 L 174 518 L 175 517 Z" fill="black"/>
<path d="M 611 495 L 614 498 L 615 498 L 616 499 L 617 499 L 619 501 L 619 507 L 618 508 L 618 509 L 617 510 L 617 511 L 616 512 L 616 513 L 613 516 L 613 517 L 604 526 L 603 526 L 602 527 L 601 527 L 600 528 L 595 528 L 594 527 L 594 526 L 593 525 L 593 520 L 594 519 L 594 516 L 595 515 L 595 514 L 596 513 L 596 512 L 597 511 L 597 510 L 599 508 L 599 507 Z" fill="black"/>
<path d="M 356 496 L 357 495 L 363 495 L 364 496 L 364 497 L 363 498 L 363 499 L 360 502 L 360 503 L 358 505 L 358 506 L 355 509 L 355 510 L 352 513 L 352 514 L 345 521 L 344 521 L 343 522 L 342 522 L 339 525 L 338 525 L 337 526 L 336 526 L 335 527 L 333 527 L 332 526 L 332 520 L 333 519 L 333 518 L 334 517 L 334 516 L 335 515 L 335 514 L 339 510 L 339 509 L 343 505 L 343 504 L 344 503 L 345 503 L 347 501 L 348 501 L 352 497 L 354 497 L 355 496 Z" fill="black"/>
<path d="M 466 495 L 467 494 L 472 494 L 474 496 L 474 497 L 470 501 L 470 502 L 468 504 L 468 505 L 466 507 L 466 508 L 462 512 L 462 513 L 453 522 L 452 522 L 449 525 L 448 525 L 447 526 L 446 526 L 445 527 L 442 527 L 441 526 L 441 520 L 442 519 L 442 518 L 443 517 L 443 516 L 445 514 L 445 513 L 446 512 L 446 511 L 452 505 L 452 504 L 453 503 L 454 503 L 459 498 L 460 498 L 461 497 L 462 497 L 464 495 Z" fill="black"/>
<path d="M 766 489 L 765 490 L 765 491 L 764 492 L 764 493 L 763 494 L 763 495 L 762 496 L 762 497 L 761 498 L 761 499 L 760 500 L 760 501 L 759 502 L 759 503 L 758 504 L 758 505 L 757 506 L 757 507 L 756 508 L 756 509 L 755 510 L 755 511 L 754 512 L 753 512 L 753 513 L 746 520 L 745 520 L 743 522 L 742 522 L 740 524 L 739 524 L 738 525 L 737 525 L 736 526 L 735 526 L 734 527 L 732 527 L 729 524 L 729 522 L 730 521 L 730 518 L 731 517 L 731 516 L 732 515 L 732 514 L 733 513 L 733 512 L 734 511 L 734 510 L 735 509 L 735 508 L 737 506 L 737 505 L 740 502 L 740 501 L 742 499 L 742 498 L 743 497 L 743 495 L 742 494 L 742 493 L 740 493 L 739 492 L 738 492 L 737 493 L 736 493 L 736 494 L 733 497 L 733 498 L 731 500 L 731 501 L 730 502 L 730 503 L 729 504 L 729 505 L 728 506 L 728 507 L 727 508 L 727 509 L 726 510 L 726 511 L 725 512 L 725 514 L 724 515 L 724 517 L 723 518 L 723 527 L 725 529 L 726 529 L 727 530 L 734 530 L 735 529 L 737 529 L 738 528 L 739 528 L 740 527 L 741 527 L 742 526 L 743 526 L 745 524 L 746 524 L 747 523 L 748 524 L 748 525 L 747 526 L 747 528 L 748 529 L 748 530 L 750 530 L 751 531 L 757 525 L 757 524 L 772 509 L 773 509 L 779 503 L 780 503 L 781 502 L 782 502 L 783 501 L 784 501 L 785 500 L 787 500 L 788 501 L 787 502 L 787 503 L 786 504 L 786 505 L 785 506 L 785 508 L 784 509 L 784 511 L 783 512 L 783 514 L 782 515 L 782 516 L 781 517 L 781 519 L 780 520 L 780 525 L 781 526 L 781 527 L 784 530 L 790 530 L 791 529 L 792 529 L 793 528 L 794 528 L 795 527 L 796 527 L 797 526 L 798 526 L 800 524 L 801 524 L 804 521 L 805 521 L 812 514 L 812 512 L 811 512 L 807 516 L 806 516 L 802 520 L 801 520 L 799 522 L 798 522 L 796 524 L 795 524 L 794 525 L 793 525 L 792 526 L 789 526 L 787 524 L 787 521 L 788 520 L 788 518 L 789 517 L 789 516 L 790 515 L 790 514 L 791 513 L 791 512 L 792 511 L 792 510 L 793 509 L 793 508 L 794 507 L 794 505 L 795 504 L 795 495 L 794 494 L 789 494 L 788 495 L 787 495 L 786 496 L 785 496 L 784 497 L 783 497 L 782 498 L 781 498 L 779 500 L 778 500 L 777 501 L 776 501 L 776 502 L 775 503 L 774 503 L 771 506 L 770 506 L 766 510 L 765 510 L 764 509 L 765 508 L 765 507 L 766 506 L 766 505 L 767 504 L 767 503 L 768 502 L 768 501 L 769 500 L 769 499 L 770 498 L 770 496 L 771 495 L 771 491 L 769 489 Z" fill="black"/>
<path d="M 613 489 L 610 492 L 606 492 L 605 493 L 604 493 L 603 494 L 602 494 L 599 497 L 598 497 L 593 502 L 593 503 L 592 504 L 592 505 L 590 507 L 590 508 L 589 509 L 589 510 L 588 511 L 588 513 L 587 514 L 587 516 L 586 517 L 586 528 L 590 532 L 599 532 L 600 531 L 602 531 L 603 530 L 604 530 L 605 529 L 606 529 L 609 526 L 610 526 L 614 522 L 614 521 L 616 519 L 616 518 L 618 516 L 618 515 L 619 514 L 619 513 L 620 512 L 620 511 L 621 510 L 621 507 L 622 506 L 622 502 L 624 500 L 627 500 L 628 501 L 633 501 L 634 502 L 632 504 L 632 506 L 631 507 L 631 508 L 630 509 L 630 510 L 629 511 L 629 514 L 628 515 L 628 522 L 629 523 L 629 525 L 630 526 L 630 527 L 631 527 L 634 530 L 635 530 L 636 531 L 638 531 L 639 532 L 647 532 L 648 531 L 651 531 L 652 530 L 655 530 L 657 528 L 658 528 L 659 527 L 660 527 L 661 526 L 662 526 L 664 524 L 665 524 L 669 520 L 670 520 L 673 517 L 674 517 L 681 510 L 682 510 L 686 506 L 687 506 L 687 505 L 688 504 L 689 504 L 691 502 L 692 502 L 694 500 L 695 500 L 696 499 L 697 499 L 699 497 L 700 497 L 701 496 L 702 496 L 703 495 L 707 495 L 708 494 L 709 495 L 710 495 L 711 496 L 711 497 L 707 501 L 706 501 L 700 507 L 699 507 L 697 509 L 696 509 L 692 513 L 691 513 L 689 515 L 688 515 L 685 518 L 684 518 L 682 520 L 681 520 L 678 523 L 677 523 L 672 528 L 672 532 L 673 533 L 681 533 L 682 532 L 687 532 L 688 531 L 692 531 L 693 530 L 708 530 L 709 531 L 719 531 L 719 530 L 718 529 L 716 529 L 715 528 L 712 528 L 711 527 L 707 527 L 706 526 L 690 526 L 689 525 L 689 524 L 692 521 L 693 521 L 697 517 L 698 517 L 701 514 L 702 514 L 705 511 L 706 511 L 712 505 L 713 505 L 716 502 L 717 502 L 723 496 L 723 493 L 722 492 L 720 492 L 719 491 L 715 491 L 714 490 L 714 489 L 706 489 L 705 490 L 704 490 L 703 491 L 702 491 L 700 493 L 699 493 L 697 495 L 696 495 L 694 497 L 693 497 L 691 499 L 690 499 L 684 505 L 683 505 L 679 509 L 678 509 L 675 512 L 674 512 L 668 518 L 667 518 L 664 521 L 663 521 L 662 522 L 661 522 L 659 524 L 657 524 L 656 525 L 655 525 L 654 526 L 652 526 L 651 527 L 649 527 L 648 528 L 640 528 L 636 524 L 636 523 L 635 522 L 635 514 L 636 513 L 636 511 L 637 510 L 637 509 L 638 508 L 638 507 L 641 504 L 641 503 L 646 498 L 647 498 L 650 495 L 652 495 L 653 494 L 657 494 L 659 496 L 659 498 L 656 501 L 656 502 L 655 503 L 655 505 L 659 505 L 660 504 L 661 504 L 662 503 L 662 502 L 663 501 L 663 499 L 664 498 L 664 496 L 663 495 L 663 493 L 660 490 L 659 490 L 658 489 L 652 489 L 651 490 L 649 490 L 648 491 L 647 491 L 646 492 L 645 492 L 644 493 L 643 493 L 641 495 L 640 495 L 638 497 L 632 497 L 631 498 L 628 498 L 627 497 L 622 497 L 621 496 L 621 492 L 620 491 L 620 490 L 619 489 Z" fill="black"/>
<path d="M 837 487 L 836 488 L 833 488 L 832 489 L 831 489 L 829 491 L 828 491 L 827 492 L 826 492 L 824 494 L 823 494 L 821 496 L 820 496 L 817 499 L 817 500 L 816 501 L 816 507 L 817 508 L 817 509 L 818 510 L 818 511 L 820 513 L 820 515 L 821 516 L 821 517 L 822 518 L 822 521 L 821 522 L 821 523 L 820 524 L 820 525 L 819 526 L 818 526 L 816 528 L 814 528 L 813 529 L 808 529 L 807 528 L 805 528 L 804 527 L 802 527 L 802 528 L 803 529 L 803 530 L 804 531 L 805 531 L 806 532 L 807 532 L 808 533 L 817 533 L 818 532 L 821 532 L 822 531 L 823 531 L 824 530 L 825 530 L 829 526 L 829 525 L 830 524 L 830 523 L 831 522 L 831 520 L 830 519 L 830 515 L 829 514 L 829 511 L 828 510 L 828 506 L 827 505 L 827 501 L 828 500 L 828 498 L 832 494 L 833 494 L 834 493 L 835 493 L 836 492 L 837 492 L 838 491 L 843 491 L 843 489 L 842 488 L 841 488 L 840 487 Z" fill="black"/>
<path d="M 318 476 L 316 478 L 316 479 L 315 480 L 315 481 L 316 482 L 316 484 L 317 485 L 320 485 L 321 484 L 322 484 L 325 481 L 325 477 L 324 476 Z" fill="black"/>
<path d="M 749 474 L 748 475 L 747 475 L 744 478 L 744 482 L 746 484 L 749 484 L 750 483 L 751 483 L 753 481 L 753 480 L 754 479 L 754 475 L 753 474 Z" fill="black"/>
<path d="M 919 471 L 918 472 L 917 472 L 915 474 L 915 475 L 914 476 L 914 478 L 915 479 L 915 480 L 919 480 L 920 479 L 922 479 L 923 478 L 923 477 L 924 476 L 924 472 L 923 471 Z" fill="black"/>
<path d="M 887 444 L 881 450 L 881 451 L 880 452 L 880 453 L 878 455 L 878 456 L 877 457 L 877 458 L 875 460 L 875 461 L 873 463 L 873 464 L 871 466 L 871 467 L 869 469 L 869 470 L 868 471 L 868 472 L 866 474 L 866 475 L 864 477 L 864 478 L 862 480 L 862 481 L 861 482 L 861 483 L 860 484 L 860 485 L 859 486 L 859 487 L 857 489 L 857 490 L 855 492 L 855 493 L 853 495 L 853 496 L 851 498 L 851 499 L 850 500 L 850 501 L 848 503 L 848 504 L 846 506 L 846 507 L 845 508 L 845 509 L 844 510 L 844 511 L 842 513 L 842 514 L 841 515 L 841 516 L 840 517 L 840 518 L 838 520 L 838 521 L 836 523 L 836 524 L 834 526 L 834 527 L 833 528 L 833 532 L 834 533 L 837 533 L 838 532 L 839 532 L 839 531 L 842 528 L 842 527 L 844 525 L 844 524 L 846 522 L 846 521 L 848 519 L 848 518 L 851 515 L 851 514 L 852 513 L 853 513 L 854 514 L 854 516 L 855 517 L 855 518 L 856 519 L 856 521 L 857 522 L 857 523 L 862 528 L 863 528 L 864 529 L 865 529 L 866 530 L 875 530 L 876 529 L 877 529 L 878 528 L 879 528 L 880 527 L 881 527 L 882 526 L 883 526 L 886 523 L 887 523 L 891 519 L 892 520 L 892 526 L 894 528 L 894 529 L 895 529 L 896 530 L 899 530 L 900 531 L 902 531 L 903 530 L 906 530 L 907 529 L 909 529 L 910 528 L 911 528 L 912 527 L 913 527 L 915 525 L 916 525 L 920 521 L 921 521 L 927 515 L 927 514 L 929 512 L 929 511 L 928 511 L 927 512 L 926 512 L 921 517 L 920 517 L 920 518 L 919 519 L 918 519 L 916 521 L 915 521 L 914 522 L 913 522 L 911 524 L 910 524 L 909 525 L 908 525 L 907 526 L 906 526 L 905 527 L 901 527 L 898 524 L 898 522 L 899 521 L 899 518 L 901 516 L 901 514 L 902 513 L 902 512 L 903 511 L 903 510 L 905 508 L 905 507 L 907 505 L 907 504 L 910 501 L 910 500 L 912 498 L 912 497 L 914 495 L 914 494 L 915 493 L 915 491 L 913 489 L 910 489 L 904 495 L 904 496 L 901 499 L 901 500 L 899 502 L 899 503 L 898 504 L 898 505 L 897 506 L 897 507 L 895 509 L 895 510 L 893 512 L 893 513 L 887 519 L 886 519 L 884 521 L 883 521 L 882 522 L 881 522 L 880 523 L 879 523 L 878 524 L 876 524 L 875 525 L 870 525 L 866 521 L 866 520 L 864 518 L 864 517 L 863 516 L 863 514 L 862 513 L 862 510 L 860 508 L 862 506 L 863 506 L 864 505 L 865 505 L 866 504 L 867 504 L 868 503 L 869 503 L 870 502 L 871 502 L 872 501 L 873 501 L 874 500 L 875 500 L 876 499 L 877 499 L 878 498 L 879 498 L 880 497 L 881 497 L 882 496 L 883 496 L 884 495 L 885 495 L 886 494 L 887 494 L 891 490 L 891 487 L 890 486 L 889 486 L 888 485 L 887 486 L 884 486 L 883 487 L 882 487 L 879 490 L 878 490 L 874 494 L 873 494 L 871 496 L 870 496 L 868 498 L 867 498 L 865 500 L 864 500 L 863 501 L 862 501 L 859 504 L 858 504 L 857 505 L 856 504 L 856 503 L 858 501 L 858 500 L 859 499 L 859 498 L 861 496 L 861 495 L 862 494 L 862 493 L 864 491 L 864 490 L 866 488 L 866 487 L 868 485 L 868 484 L 870 482 L 870 481 L 871 480 L 871 479 L 873 477 L 873 476 L 874 475 L 874 474 L 877 471 L 877 470 L 879 468 L 879 467 L 881 465 L 881 464 L 884 461 L 884 460 L 887 457 L 887 456 L 889 454 L 889 453 L 891 451 L 891 450 L 893 448 L 893 446 L 891 444 Z" fill="black"/>
<path d="M 561 429 L 560 430 L 557 430 L 556 431 L 555 431 L 554 432 L 555 433 L 555 434 L 557 436 L 557 444 L 556 445 L 556 447 L 555 448 L 555 450 L 554 451 L 554 453 L 553 454 L 553 455 L 552 456 L 552 458 L 551 459 L 551 460 L 550 461 L 550 463 L 548 465 L 548 466 L 547 467 L 547 468 L 546 469 L 546 471 L 545 472 L 545 473 L 544 474 L 544 475 L 543 476 L 543 477 L 542 478 L 542 479 L 541 480 L 541 481 L 539 483 L 539 484 L 538 485 L 538 487 L 536 489 L 536 491 L 534 493 L 534 495 L 532 497 L 532 498 L 531 499 L 531 500 L 529 502 L 529 503 L 528 504 L 528 506 L 527 507 L 527 508 L 526 509 L 526 510 L 525 511 L 525 512 L 524 513 L 524 514 L 523 515 L 523 516 L 522 517 L 522 518 L 521 519 L 521 520 L 520 521 L 520 522 L 519 523 L 519 524 L 518 525 L 518 527 L 517 528 L 517 529 L 516 530 L 516 532 L 515 533 L 515 534 L 514 535 L 514 536 L 513 537 L 513 539 L 512 540 L 512 543 L 511 544 L 511 552 L 512 553 L 512 554 L 514 556 L 519 556 L 519 553 L 518 552 L 518 549 L 519 548 L 519 544 L 520 543 L 520 541 L 521 540 L 521 539 L 522 538 L 522 536 L 523 535 L 523 534 L 524 533 L 524 532 L 525 531 L 525 529 L 526 528 L 526 527 L 527 526 L 527 525 L 528 524 L 528 523 L 529 522 L 529 521 L 530 520 L 530 519 L 532 517 L 532 516 L 533 515 L 533 514 L 534 513 L 534 512 L 535 511 L 536 512 L 536 513 L 538 515 L 538 516 L 557 535 L 558 535 L 563 540 L 564 540 L 567 543 L 568 543 L 571 546 L 572 546 L 574 548 L 575 548 L 577 550 L 578 550 L 579 551 L 580 551 L 582 553 L 583 553 L 584 554 L 585 554 L 586 555 L 587 555 L 588 556 L 589 556 L 590 557 L 591 557 L 592 558 L 593 558 L 594 559 L 596 559 L 597 560 L 599 560 L 600 561 L 603 561 L 604 562 L 607 562 L 608 563 L 620 563 L 621 562 L 622 562 L 622 560 L 614 560 L 613 559 L 610 559 L 609 558 L 608 558 L 607 557 L 605 557 L 604 556 L 602 556 L 601 555 L 600 555 L 599 554 L 598 554 L 597 553 L 595 553 L 594 552 L 593 552 L 591 550 L 590 550 L 589 549 L 588 549 L 587 548 L 586 548 L 583 545 L 582 545 L 581 544 L 580 544 L 579 543 L 578 543 L 575 540 L 574 540 L 567 533 L 566 533 L 561 528 L 560 528 L 559 527 L 559 526 L 555 522 L 554 522 L 553 521 L 553 520 L 552 520 L 551 519 L 551 518 L 544 511 L 544 510 L 542 508 L 542 506 L 543 505 L 544 505 L 547 502 L 548 502 L 552 498 L 553 498 L 557 494 L 558 494 L 562 490 L 563 490 L 566 487 L 567 487 L 567 486 L 568 485 L 569 485 L 572 482 L 573 482 L 577 478 L 578 478 L 583 473 L 584 473 L 587 470 L 588 470 L 592 466 L 593 466 L 597 462 L 598 462 L 602 458 L 603 458 L 606 455 L 607 455 L 610 452 L 611 452 L 614 449 L 615 449 L 617 447 L 618 447 L 619 446 L 620 446 L 622 444 L 623 444 L 624 443 L 625 443 L 627 441 L 628 441 L 629 440 L 630 440 L 631 439 L 632 439 L 633 438 L 635 438 L 636 437 L 639 437 L 640 436 L 641 437 L 642 437 L 643 438 L 643 439 L 644 440 L 646 438 L 646 434 L 642 430 L 641 430 L 640 429 L 635 429 L 634 430 L 632 430 L 631 431 L 630 431 L 629 432 L 627 432 L 626 433 L 625 433 L 623 435 L 622 435 L 621 436 L 620 436 L 618 438 L 617 438 L 615 440 L 614 440 L 611 443 L 610 443 L 607 446 L 606 446 L 603 449 L 602 449 L 595 456 L 594 456 L 590 460 L 589 460 L 585 464 L 584 464 L 579 469 L 578 469 L 573 474 L 572 474 L 566 480 L 565 480 L 562 483 L 561 483 L 561 484 L 559 486 L 558 486 L 550 494 L 549 494 L 545 498 L 544 498 L 540 502 L 539 501 L 539 500 L 541 498 L 541 497 L 542 496 L 542 495 L 543 494 L 543 493 L 544 492 L 544 491 L 545 490 L 545 489 L 547 487 L 547 486 L 548 485 L 548 484 L 549 483 L 549 482 L 550 481 L 550 480 L 551 479 L 551 478 L 552 477 L 552 476 L 553 475 L 553 474 L 554 473 L 554 472 L 555 471 L 555 470 L 557 468 L 557 467 L 558 466 L 558 464 L 559 463 L 559 462 L 560 461 L 560 460 L 561 459 L 561 458 L 562 457 L 562 456 L 563 455 L 563 454 L 564 453 L 564 452 L 565 451 L 565 450 L 566 449 L 566 446 L 567 445 L 567 443 L 568 442 L 568 440 L 569 439 L 569 432 L 568 431 L 568 430 L 567 430 L 566 429 Z" fill="black"/>
<path d="M 321 429 L 322 428 L 323 428 L 324 429 L 324 431 L 323 432 L 323 434 L 322 435 L 322 436 L 321 437 L 321 438 L 320 439 L 320 440 L 318 442 L 318 443 L 317 444 L 317 445 L 316 446 L 316 447 L 315 448 L 315 449 L 313 451 L 313 452 L 312 453 L 312 454 L 309 457 L 309 458 L 306 461 L 306 462 L 304 464 L 304 465 L 301 468 L 301 469 L 297 473 L 297 474 L 295 476 L 295 477 L 289 483 L 289 484 L 285 488 L 285 489 L 280 494 L 280 495 L 279 496 L 278 495 L 278 493 L 279 492 L 279 491 L 280 490 L 280 489 L 281 488 L 281 487 L 282 486 L 282 485 L 283 484 L 283 482 L 284 481 L 284 480 L 285 479 L 285 478 L 286 477 L 286 476 L 287 475 L 287 474 L 288 473 L 288 472 L 290 470 L 290 469 L 291 468 L 291 467 L 292 466 L 292 465 L 294 463 L 294 462 L 295 461 L 295 460 L 297 458 L 297 457 L 298 456 L 298 455 L 300 453 L 300 452 L 301 451 L 301 450 L 303 448 L 303 447 L 305 445 L 305 444 L 311 438 L 311 437 L 314 434 L 315 434 L 316 433 L 316 432 L 317 431 L 318 431 L 320 429 Z" fill="black"/>
<path d="M 236 407 L 235 408 L 234 408 L 233 409 L 233 411 L 232 412 L 232 413 L 231 414 L 231 415 L 229 417 L 229 418 L 228 419 L 228 420 L 227 421 L 221 421 L 220 422 L 213 422 L 212 423 L 207 423 L 206 424 L 202 424 L 201 425 L 198 425 L 197 426 L 194 426 L 193 427 L 190 427 L 189 428 L 187 428 L 186 429 L 184 429 L 183 430 L 181 430 L 180 431 L 178 431 L 177 432 L 176 432 L 175 433 L 173 433 L 172 434 L 170 434 L 169 435 L 168 435 L 167 436 L 166 436 L 165 437 L 164 437 L 163 438 L 162 438 L 160 440 L 159 440 L 158 441 L 157 441 L 155 443 L 154 443 L 151 446 L 150 446 L 148 448 L 147 448 L 143 452 L 143 453 L 139 457 L 139 458 L 138 459 L 138 460 L 136 462 L 136 463 L 135 464 L 135 465 L 134 466 L 134 468 L 133 469 L 133 472 L 132 473 L 132 487 L 133 488 L 133 490 L 134 491 L 134 493 L 136 495 L 136 496 L 141 501 L 142 501 L 144 503 L 147 503 L 148 504 L 151 504 L 152 505 L 159 505 L 159 503 L 154 503 L 153 502 L 150 502 L 149 501 L 148 501 L 146 499 L 145 499 L 139 493 L 139 492 L 138 491 L 138 490 L 137 489 L 137 487 L 136 486 L 136 477 L 137 476 L 137 472 L 138 471 L 138 470 L 139 469 L 139 468 L 140 467 L 140 465 L 142 463 L 142 462 L 143 461 L 143 460 L 146 457 L 146 456 L 147 455 L 148 455 L 151 452 L 151 451 L 152 450 L 153 450 L 155 448 L 156 448 L 158 446 L 159 446 L 161 444 L 162 444 L 164 442 L 165 442 L 166 441 L 167 441 L 168 440 L 169 440 L 170 439 L 171 439 L 172 438 L 173 438 L 174 437 L 175 437 L 176 436 L 178 436 L 179 435 L 181 435 L 182 434 L 183 434 L 184 433 L 186 433 L 187 432 L 188 432 L 189 431 L 191 431 L 192 430 L 196 430 L 197 429 L 199 429 L 200 428 L 203 428 L 204 427 L 207 427 L 208 426 L 215 426 L 216 425 L 221 425 L 222 424 L 224 424 L 225 425 L 225 426 L 224 427 L 224 428 L 222 430 L 222 431 L 221 432 L 221 433 L 220 434 L 220 436 L 218 438 L 218 440 L 217 441 L 217 442 L 216 443 L 216 444 L 215 445 L 215 446 L 214 447 L 214 448 L 213 449 L 213 450 L 212 451 L 212 452 L 211 453 L 211 454 L 210 455 L 210 456 L 209 457 L 209 458 L 208 459 L 208 460 L 207 461 L 207 463 L 205 465 L 205 466 L 204 467 L 204 468 L 203 469 L 203 470 L 202 471 L 202 472 L 201 473 L 201 475 L 200 476 L 200 477 L 199 478 L 199 479 L 198 480 L 198 481 L 196 483 L 196 484 L 195 485 L 195 487 L 193 489 L 193 490 L 192 491 L 192 492 L 191 493 L 191 495 L 190 496 L 190 497 L 189 498 L 189 499 L 188 500 L 188 501 L 187 502 L 187 503 L 186 504 L 186 506 L 185 507 L 185 508 L 184 509 L 184 510 L 182 512 L 180 512 L 179 513 L 176 513 L 175 514 L 173 514 L 172 515 L 170 515 L 169 516 L 166 516 L 165 517 L 164 517 L 163 518 L 162 518 L 161 519 L 159 519 L 158 520 L 156 520 L 155 521 L 154 521 L 153 522 L 152 522 L 151 523 L 149 523 L 148 524 L 147 524 L 146 525 L 145 525 L 144 526 L 142 526 L 140 528 L 138 528 L 137 529 L 136 529 L 135 530 L 134 530 L 132 532 L 131 532 L 130 533 L 129 533 L 127 535 L 126 535 L 124 537 L 123 537 L 122 538 L 121 538 L 119 540 L 118 540 L 115 543 L 114 543 L 112 545 L 111 545 L 107 549 L 106 549 L 97 558 L 97 559 L 96 560 L 96 561 L 94 563 L 94 564 L 92 566 L 92 567 L 91 568 L 91 570 L 90 571 L 90 573 L 89 574 L 89 580 L 88 581 L 88 585 L 89 586 L 89 589 L 90 590 L 90 592 L 96 598 L 97 598 L 98 599 L 100 599 L 101 600 L 119 600 L 120 599 L 123 599 L 124 598 L 126 598 L 127 597 L 128 597 L 129 596 L 130 596 L 131 595 L 132 595 L 134 593 L 135 593 L 137 591 L 138 591 L 141 588 L 142 588 L 153 577 L 153 576 L 157 572 L 157 571 L 159 569 L 159 568 L 162 565 L 162 564 L 165 561 L 165 560 L 166 559 L 166 558 L 167 557 L 167 556 L 169 554 L 169 553 L 171 551 L 171 550 L 172 549 L 172 548 L 174 546 L 174 544 L 175 543 L 175 542 L 177 540 L 177 539 L 178 538 L 178 537 L 180 535 L 180 534 L 181 533 L 181 532 L 182 531 L 182 530 L 183 529 L 183 528 L 184 527 L 184 526 L 185 525 L 185 524 L 186 523 L 186 522 L 187 521 L 187 520 L 188 519 L 188 518 L 189 517 L 189 516 L 190 515 L 190 514 L 191 513 L 191 512 L 192 511 L 196 511 L 197 510 L 201 510 L 202 509 L 206 509 L 207 508 L 209 508 L 210 509 L 209 510 L 209 512 L 208 513 L 208 515 L 207 516 L 207 519 L 206 520 L 206 528 L 207 529 L 207 530 L 209 532 L 217 532 L 218 531 L 219 531 L 221 529 L 222 529 L 226 525 L 227 525 L 235 517 L 236 518 L 236 524 L 237 525 L 237 527 L 238 528 L 239 528 L 240 529 L 241 529 L 242 530 L 245 530 L 246 529 L 248 529 L 249 528 L 250 528 L 251 527 L 253 527 L 254 526 L 255 526 L 259 522 L 260 522 L 262 520 L 263 520 L 264 521 L 264 526 L 265 527 L 265 529 L 267 531 L 269 531 L 270 532 L 276 532 L 277 531 L 279 531 L 280 530 L 281 530 L 282 529 L 283 529 L 284 528 L 285 528 L 289 524 L 290 524 L 295 519 L 296 520 L 296 522 L 297 523 L 297 526 L 301 530 L 309 530 L 310 529 L 311 529 L 312 528 L 313 528 L 314 527 L 315 527 L 316 526 L 317 526 L 319 524 L 320 524 L 321 523 L 322 523 L 323 522 L 324 522 L 325 523 L 325 527 L 326 528 L 326 529 L 327 530 L 328 530 L 329 531 L 334 531 L 335 530 L 336 530 L 337 529 L 338 529 L 339 528 L 340 528 L 341 527 L 342 527 L 346 523 L 347 523 L 351 519 L 352 519 L 354 517 L 355 518 L 355 525 L 356 526 L 356 527 L 357 527 L 358 528 L 365 528 L 366 527 L 368 527 L 369 526 L 370 526 L 371 525 L 372 525 L 373 524 L 374 524 L 376 522 L 377 523 L 377 524 L 376 525 L 376 527 L 375 528 L 376 529 L 376 530 L 378 532 L 379 532 L 383 528 L 383 527 L 400 510 L 401 510 L 406 505 L 407 505 L 407 504 L 408 503 L 409 503 L 410 502 L 411 502 L 412 501 L 413 501 L 414 500 L 415 500 L 416 499 L 417 500 L 417 501 L 416 502 L 416 504 L 415 505 L 415 506 L 414 507 L 414 508 L 413 509 L 413 510 L 412 511 L 412 513 L 411 514 L 411 515 L 410 516 L 410 519 L 409 520 L 409 526 L 410 527 L 410 528 L 411 529 L 412 529 L 413 530 L 420 530 L 421 529 L 423 529 L 425 527 L 426 527 L 428 525 L 429 525 L 430 524 L 431 524 L 432 523 L 433 523 L 434 524 L 434 527 L 435 528 L 435 529 L 436 530 L 437 530 L 438 531 L 444 531 L 445 530 L 447 530 L 449 528 L 450 528 L 452 526 L 453 526 L 458 521 L 459 521 L 460 520 L 460 519 L 463 516 L 464 517 L 464 524 L 465 525 L 465 526 L 466 527 L 467 527 L 468 528 L 476 528 L 477 527 L 479 527 L 480 526 L 481 526 L 482 525 L 483 525 L 484 524 L 485 524 L 486 523 L 487 523 L 493 517 L 494 517 L 495 516 L 495 515 L 497 513 L 497 512 L 496 511 L 491 516 L 490 516 L 490 517 L 489 518 L 488 518 L 486 520 L 485 520 L 484 521 L 483 521 L 482 522 L 481 522 L 480 523 L 479 523 L 478 524 L 476 524 L 475 525 L 474 525 L 473 524 L 472 524 L 471 523 L 471 516 L 472 515 L 472 513 L 474 511 L 474 509 L 475 508 L 475 507 L 477 505 L 477 504 L 478 503 L 478 500 L 477 500 L 476 499 L 476 498 L 477 497 L 479 497 L 479 494 L 475 490 L 473 490 L 472 489 L 465 489 L 464 490 L 461 490 L 460 491 L 459 491 L 458 492 L 456 492 L 454 494 L 453 494 L 451 496 L 450 496 L 446 500 L 446 501 L 445 502 L 444 502 L 444 503 L 440 507 L 440 508 L 438 510 L 438 511 L 437 512 L 437 513 L 428 522 L 427 522 L 425 524 L 424 524 L 423 525 L 422 525 L 421 526 L 420 526 L 419 527 L 417 527 L 415 525 L 415 522 L 416 521 L 416 520 L 417 519 L 417 518 L 418 517 L 418 516 L 419 515 L 419 514 L 420 513 L 420 512 L 421 511 L 421 510 L 422 509 L 422 507 L 423 506 L 423 504 L 424 503 L 424 496 L 422 494 L 418 494 L 417 495 L 416 495 L 415 496 L 413 496 L 411 498 L 410 498 L 407 501 L 406 501 L 405 502 L 404 502 L 402 504 L 401 504 L 399 506 L 398 506 L 394 510 L 393 509 L 393 508 L 395 506 L 395 505 L 396 504 L 396 503 L 397 502 L 397 501 L 398 500 L 398 498 L 399 497 L 399 491 L 398 490 L 396 490 L 395 491 L 394 491 L 392 493 L 392 494 L 390 496 L 390 498 L 389 499 L 389 500 L 387 502 L 387 503 L 386 504 L 386 505 L 385 506 L 385 507 L 384 508 L 384 509 L 383 510 L 383 511 L 381 513 L 381 514 L 380 515 L 379 515 L 374 520 L 373 520 L 371 522 L 370 522 L 369 523 L 368 523 L 367 524 L 362 524 L 361 523 L 361 520 L 362 519 L 362 516 L 363 515 L 363 513 L 365 511 L 365 509 L 366 508 L 366 507 L 367 506 L 367 504 L 368 503 L 368 500 L 367 499 L 369 497 L 370 497 L 371 496 L 366 491 L 365 491 L 364 490 L 354 490 L 353 491 L 352 491 L 351 492 L 350 492 L 349 493 L 348 493 L 347 494 L 346 494 L 344 496 L 343 496 L 341 498 L 340 498 L 334 504 L 334 505 L 331 508 L 331 509 L 328 512 L 328 513 L 324 517 L 323 517 L 319 521 L 318 521 L 316 523 L 315 523 L 313 525 L 312 525 L 311 526 L 309 526 L 308 527 L 306 527 L 305 526 L 304 526 L 303 525 L 303 518 L 304 517 L 304 516 L 305 515 L 305 514 L 306 513 L 306 512 L 308 510 L 308 509 L 310 507 L 310 506 L 311 505 L 311 504 L 314 501 L 314 500 L 315 499 L 315 498 L 316 497 L 316 494 L 314 492 L 311 492 L 306 497 L 306 498 L 305 499 L 305 500 L 303 502 L 303 503 L 302 504 L 302 505 L 301 506 L 301 507 L 300 508 L 300 509 L 296 513 L 296 514 L 292 518 L 291 518 L 287 522 L 286 522 L 282 526 L 281 526 L 280 527 L 278 527 L 277 528 L 274 528 L 273 527 L 272 527 L 271 526 L 271 524 L 270 523 L 270 514 L 271 513 L 271 511 L 272 510 L 272 509 L 273 508 L 273 507 L 274 506 L 274 504 L 275 503 L 276 503 L 279 500 L 279 499 L 286 492 L 286 491 L 293 484 L 293 483 L 295 481 L 295 480 L 296 479 L 297 479 L 298 478 L 298 477 L 302 473 L 302 472 L 304 470 L 304 469 L 308 465 L 308 464 L 310 462 L 310 461 L 312 459 L 312 458 L 315 455 L 315 454 L 316 453 L 316 452 L 319 449 L 319 448 L 320 447 L 320 446 L 322 444 L 322 443 L 323 442 L 323 441 L 324 440 L 324 439 L 325 438 L 325 437 L 326 436 L 326 435 L 327 434 L 327 432 L 328 431 L 328 429 L 329 428 L 329 422 L 327 420 L 323 420 L 322 421 L 320 421 L 318 423 L 317 423 L 313 427 L 312 427 L 312 428 L 311 429 L 310 429 L 304 435 L 304 436 L 302 438 L 302 439 L 299 442 L 299 443 L 296 446 L 296 447 L 292 451 L 292 452 L 290 454 L 290 455 L 289 456 L 289 457 L 287 459 L 287 460 L 285 462 L 285 463 L 284 464 L 284 465 L 283 466 L 283 467 L 282 468 L 282 469 L 281 470 L 281 471 L 280 472 L 280 474 L 278 476 L 278 477 L 277 478 L 277 479 L 276 480 L 276 481 L 275 482 L 275 484 L 274 485 L 274 486 L 273 487 L 273 488 L 272 489 L 272 491 L 271 492 L 271 493 L 270 494 L 270 495 L 269 496 L 269 498 L 268 499 L 268 501 L 267 502 L 267 504 L 266 505 L 266 508 L 265 509 L 265 513 L 264 514 L 264 515 L 263 516 L 262 516 L 259 519 L 258 519 L 255 522 L 254 522 L 252 524 L 251 524 L 250 525 L 249 525 L 248 526 L 247 526 L 246 527 L 245 527 L 242 524 L 242 522 L 243 521 L 243 518 L 244 517 L 244 515 L 245 514 L 245 512 L 246 511 L 246 510 L 247 509 L 247 508 L 248 507 L 248 506 L 249 505 L 249 504 L 250 503 L 250 502 L 252 500 L 252 499 L 253 498 L 253 494 L 252 493 L 251 493 L 250 492 L 249 492 L 248 493 L 247 493 L 246 494 L 246 495 L 245 496 L 245 497 L 243 499 L 243 500 L 241 502 L 241 503 L 240 504 L 240 505 L 239 506 L 239 507 L 236 510 L 236 511 L 232 515 L 232 516 L 228 520 L 227 520 L 222 525 L 221 525 L 219 527 L 218 527 L 217 528 L 216 528 L 215 529 L 214 529 L 212 527 L 212 522 L 213 521 L 213 520 L 214 519 L 214 517 L 215 516 L 215 515 L 216 514 L 216 512 L 218 510 L 218 509 L 220 507 L 220 506 L 221 505 L 221 504 L 223 502 L 223 501 L 224 500 L 224 499 L 226 497 L 226 496 L 227 495 L 227 493 L 225 491 L 224 491 L 223 490 L 222 490 L 221 491 L 220 491 L 220 492 L 218 494 L 218 495 L 217 496 L 217 497 L 216 498 L 216 499 L 214 501 L 214 502 L 213 503 L 213 504 L 211 506 L 204 506 L 203 507 L 198 507 L 197 508 L 195 508 L 194 507 L 195 506 L 195 505 L 196 504 L 196 502 L 197 501 L 197 500 L 198 499 L 198 498 L 199 497 L 199 496 L 200 495 L 200 494 L 201 493 L 201 492 L 202 491 L 202 490 L 203 489 L 203 488 L 204 487 L 204 486 L 205 485 L 205 484 L 206 483 L 206 482 L 207 481 L 207 480 L 208 479 L 208 478 L 209 477 L 209 476 L 210 475 L 210 474 L 211 473 L 211 472 L 213 470 L 213 469 L 214 468 L 214 467 L 215 466 L 215 464 L 216 463 L 216 462 L 217 461 L 217 460 L 218 459 L 218 458 L 219 457 L 219 456 L 221 454 L 221 453 L 222 452 L 222 451 L 223 450 L 223 448 L 225 446 L 225 445 L 226 444 L 226 443 L 227 442 L 227 441 L 229 439 L 229 438 L 230 437 L 230 436 L 231 435 L 231 434 L 232 433 L 232 432 L 233 431 L 233 430 L 234 429 L 234 428 L 235 427 L 235 426 L 238 423 L 239 424 L 246 424 L 248 426 L 248 427 L 249 428 L 249 429 L 250 430 L 251 430 L 252 429 L 252 424 L 251 423 L 251 422 L 250 422 L 249 421 L 248 421 L 247 420 L 242 420 L 241 419 L 241 416 L 242 415 L 242 411 L 241 410 L 241 409 L 240 409 L 239 408 L 237 408 Z" fill="black"/>
<path d="M 479 332 L 480 331 L 481 332 L 481 343 L 482 344 L 481 345 L 481 348 L 480 349 L 475 349 L 474 348 L 476 346 L 476 345 L 477 344 L 477 343 L 478 342 L 478 337 L 479 336 Z" fill="black"/>
<path d="M 512 248 L 512 264 L 511 265 L 511 281 L 510 282 L 510 305 L 511 306 L 511 319 L 512 320 L 512 333 L 513 334 L 513 342 L 514 343 L 514 347 L 515 348 L 515 350 L 516 351 L 516 352 L 517 353 L 517 354 L 518 355 L 519 355 L 521 357 L 523 357 L 524 358 L 525 358 L 526 359 L 527 359 L 531 363 L 531 364 L 532 365 L 532 366 L 533 367 L 533 370 L 531 372 L 530 371 L 530 369 L 527 366 L 527 365 L 526 364 L 525 364 L 525 365 L 526 366 L 526 367 L 527 368 L 527 370 L 528 371 L 528 375 L 527 376 L 526 376 L 525 377 L 524 377 L 523 378 L 515 378 L 514 377 L 514 370 L 513 369 L 513 368 L 512 367 L 512 366 L 511 365 L 509 365 L 509 366 L 512 369 L 512 376 L 510 378 L 499 378 L 498 377 L 496 377 L 491 372 L 491 370 L 490 369 L 490 367 L 489 366 L 489 360 L 488 359 L 488 358 L 487 357 L 487 355 L 485 353 L 485 350 L 484 349 L 484 336 L 483 335 L 483 319 L 482 318 L 482 304 L 481 303 L 481 280 L 480 279 L 480 273 L 479 272 L 479 269 L 478 268 L 478 266 L 477 266 L 477 274 L 478 275 L 478 310 L 479 311 L 479 314 L 478 315 L 477 314 L 477 312 L 476 311 L 476 310 L 475 309 L 475 308 L 474 307 L 474 306 L 473 305 L 473 304 L 472 303 L 472 302 L 471 301 L 471 300 L 470 299 L 470 294 L 469 293 L 469 302 L 470 303 L 470 305 L 471 306 L 471 307 L 472 308 L 472 309 L 473 310 L 473 311 L 474 312 L 474 314 L 475 315 L 475 316 L 476 317 L 476 320 L 477 321 L 477 335 L 476 336 L 476 338 L 475 339 L 475 342 L 473 344 L 473 345 L 470 348 L 469 348 L 468 349 L 467 349 L 466 350 L 465 350 L 464 351 L 462 351 L 461 352 L 459 352 L 458 353 L 456 353 L 457 353 L 458 354 L 463 354 L 464 353 L 468 353 L 469 352 L 481 352 L 483 354 L 484 354 L 485 355 L 485 362 L 486 363 L 486 369 L 487 370 L 487 371 L 488 372 L 488 374 L 492 378 L 493 378 L 494 379 L 495 379 L 496 380 L 497 380 L 498 381 L 502 381 L 503 382 L 520 382 L 521 381 L 524 381 L 525 380 L 527 380 L 528 379 L 529 379 L 530 378 L 532 378 L 535 375 L 535 374 L 536 373 L 536 365 L 535 364 L 535 363 L 533 361 L 533 360 L 532 359 L 531 359 L 529 357 L 528 357 L 527 356 L 526 356 L 525 355 L 524 355 L 521 352 L 520 352 L 519 351 L 519 349 L 518 348 L 518 346 L 517 345 L 517 340 L 516 339 L 516 331 L 515 330 L 515 312 L 514 311 L 514 299 L 513 298 L 513 274 L 514 273 L 514 252 L 513 251 L 513 248 Z" fill="black"/>
<path d="M 424 238 L 423 239 L 423 251 L 424 252 L 424 255 L 425 256 L 425 259 L 426 260 L 426 262 L 427 263 L 427 265 L 428 266 L 428 267 L 429 268 L 429 270 L 430 271 L 430 273 L 431 274 L 431 275 L 432 276 L 432 278 L 433 279 L 433 281 L 434 282 L 434 285 L 435 286 L 435 288 L 436 289 L 436 292 L 437 293 L 437 295 L 438 296 L 438 299 L 439 300 L 439 303 L 440 304 L 440 309 L 441 310 L 441 317 L 442 318 L 442 338 L 443 339 L 443 343 L 444 344 L 444 346 L 445 347 L 445 349 L 446 350 L 446 351 L 447 352 L 447 354 L 448 355 L 448 360 L 449 361 L 449 363 L 450 364 L 450 369 L 449 370 L 449 372 L 447 374 L 446 374 L 445 375 L 444 375 L 443 376 L 441 376 L 440 377 L 434 377 L 432 375 L 432 367 L 433 366 L 432 365 L 431 366 L 431 368 L 430 369 L 430 377 L 429 378 L 420 378 L 419 377 L 417 377 L 415 375 L 415 374 L 414 373 L 414 371 L 415 370 L 415 366 L 416 365 L 416 364 L 414 366 L 414 367 L 413 368 L 413 369 L 412 370 L 412 374 L 411 375 L 410 375 L 409 374 L 408 374 L 405 371 L 405 366 L 406 365 L 406 363 L 407 362 L 407 361 L 408 360 L 408 359 L 410 357 L 410 356 L 412 354 L 412 352 L 413 351 L 413 336 L 412 335 L 412 329 L 411 328 L 411 324 L 410 323 L 410 320 L 409 319 L 409 316 L 408 315 L 408 312 L 407 311 L 407 308 L 406 307 L 406 305 L 405 304 L 405 301 L 404 300 L 404 298 L 403 297 L 403 295 L 402 294 L 402 292 L 401 291 L 401 289 L 400 288 L 400 286 L 399 285 L 399 283 L 398 282 L 398 280 L 397 279 L 397 276 L 396 275 L 396 274 L 395 273 L 395 270 L 394 269 L 394 267 L 393 266 L 393 264 L 392 263 L 392 262 L 391 261 L 391 260 L 391 261 L 392 262 L 392 266 L 393 267 L 393 271 L 394 272 L 394 276 L 395 277 L 395 280 L 396 281 L 396 283 L 397 284 L 397 287 L 398 288 L 398 290 L 399 291 L 399 294 L 400 295 L 400 298 L 401 299 L 401 301 L 402 302 L 402 304 L 403 305 L 403 308 L 404 309 L 404 311 L 405 312 L 405 315 L 406 316 L 406 319 L 407 320 L 407 322 L 408 323 L 408 327 L 409 328 L 409 333 L 410 334 L 410 343 L 411 344 L 410 345 L 410 351 L 409 352 L 409 354 L 408 355 L 408 356 L 406 358 L 406 359 L 405 360 L 405 361 L 404 362 L 404 363 L 403 364 L 403 367 L 402 368 L 402 370 L 403 371 L 403 374 L 406 377 L 408 377 L 409 378 L 412 378 L 413 379 L 414 379 L 415 380 L 417 380 L 418 381 L 438 381 L 439 380 L 442 380 L 443 379 L 445 379 L 446 378 L 447 378 L 448 377 L 449 377 L 452 374 L 452 373 L 453 372 L 453 362 L 452 361 L 452 358 L 451 357 L 451 354 L 450 353 L 450 352 L 449 351 L 449 348 L 448 347 L 448 345 L 447 344 L 447 340 L 446 339 L 446 328 L 445 327 L 445 318 L 444 317 L 444 312 L 443 311 L 443 307 L 442 306 L 442 304 L 441 303 L 441 299 L 440 298 L 440 294 L 439 293 L 439 290 L 438 289 L 438 286 L 437 285 L 437 282 L 436 281 L 436 278 L 435 277 L 435 275 L 434 274 L 434 272 L 433 271 L 433 270 L 432 269 L 432 267 L 431 266 L 431 264 L 430 263 L 430 261 L 429 260 L 429 258 L 428 257 L 428 256 L 427 255 L 427 252 L 426 251 L 426 248 L 425 247 L 425 239 Z" fill="black"/>
<path d="M 605 199 L 605 200 L 606 201 L 606 202 L 607 203 L 607 204 L 608 205 L 608 206 L 609 207 L 609 208 L 611 210 L 611 211 L 613 213 L 613 214 L 615 216 L 615 217 L 616 218 L 616 219 L 617 220 L 617 221 L 618 222 L 618 223 L 620 225 L 620 226 L 621 227 L 621 228 L 622 229 L 622 230 L 624 232 L 624 234 L 625 235 L 625 236 L 626 237 L 626 238 L 627 239 L 627 240 L 628 241 L 628 242 L 629 243 L 629 244 L 630 245 L 630 247 L 631 248 L 631 249 L 632 250 L 632 252 L 633 253 L 633 255 L 634 256 L 634 259 L 635 260 L 635 261 L 636 262 L 636 265 L 637 266 L 637 270 L 638 271 L 638 279 L 639 280 L 639 290 L 640 291 L 640 293 L 640 292 L 641 291 L 641 281 L 642 280 L 643 281 L 643 283 L 644 284 L 644 287 L 645 288 L 645 289 L 646 290 L 646 291 L 647 292 L 647 293 L 648 294 L 648 295 L 649 296 L 649 297 L 650 298 L 650 299 L 652 301 L 652 302 L 654 304 L 654 306 L 656 308 L 656 309 L 657 310 L 657 311 L 658 312 L 658 313 L 659 314 L 659 316 L 660 317 L 660 318 L 661 319 L 661 321 L 662 322 L 662 324 L 663 325 L 663 327 L 664 328 L 664 331 L 665 332 L 665 335 L 666 336 L 666 340 L 667 341 L 667 346 L 668 347 L 668 359 L 667 360 L 667 362 L 666 363 L 666 364 L 665 365 L 665 366 L 660 371 L 659 371 L 658 372 L 657 372 L 656 373 L 655 373 L 654 374 L 652 374 L 651 375 L 648 375 L 647 376 L 639 376 L 638 377 L 618 377 L 617 376 L 605 376 L 604 375 L 604 374 L 602 372 L 602 361 L 603 360 L 605 360 L 606 359 L 612 359 L 613 358 L 625 358 L 626 359 L 632 359 L 633 360 L 639 360 L 640 361 L 652 361 L 653 360 L 655 360 L 656 359 L 657 359 L 658 358 L 659 358 L 662 355 L 662 354 L 663 353 L 663 352 L 664 351 L 664 348 L 663 349 L 663 350 L 657 356 L 656 356 L 655 357 L 652 357 L 651 358 L 637 358 L 636 357 L 632 357 L 631 356 L 624 356 L 623 355 L 616 355 L 615 356 L 608 356 L 607 357 L 605 357 L 604 356 L 605 355 L 605 354 L 606 353 L 606 352 L 607 351 L 607 348 L 608 347 L 608 346 L 609 345 L 609 344 L 610 343 L 610 342 L 611 341 L 611 339 L 613 337 L 613 336 L 614 335 L 614 333 L 615 332 L 615 331 L 616 330 L 616 329 L 617 328 L 617 327 L 618 326 L 618 324 L 619 323 L 619 321 L 620 320 L 620 317 L 619 318 L 619 319 L 618 320 L 618 321 L 616 323 L 616 324 L 615 325 L 615 327 L 614 328 L 614 329 L 612 331 L 612 332 L 611 333 L 611 335 L 610 336 L 610 337 L 609 338 L 609 339 L 608 340 L 608 341 L 607 342 L 607 343 L 606 344 L 606 345 L 605 346 L 605 348 L 604 349 L 604 350 L 603 351 L 603 352 L 602 353 L 602 355 L 601 356 L 601 358 L 600 359 L 600 362 L 599 363 L 599 367 L 598 368 L 599 369 L 599 373 L 600 374 L 600 375 L 601 376 L 601 377 L 602 378 L 602 379 L 603 380 L 603 381 L 602 382 L 602 384 L 601 385 L 600 385 L 598 387 L 596 385 L 596 383 L 595 382 L 595 381 L 594 381 L 594 383 L 595 384 L 594 385 L 594 386 L 592 388 L 587 388 L 586 387 L 586 382 L 585 383 L 585 385 L 583 387 L 580 387 L 579 386 L 578 386 L 575 383 L 575 382 L 574 381 L 574 377 L 575 376 L 575 371 L 576 370 L 576 358 L 577 357 L 577 344 L 578 343 L 578 336 L 579 335 L 579 330 L 580 329 L 580 325 L 581 324 L 581 320 L 582 319 L 582 313 L 583 312 L 583 303 L 582 302 L 582 301 L 581 302 L 582 303 L 581 304 L 581 310 L 580 311 L 580 317 L 579 318 L 579 323 L 578 324 L 578 330 L 577 331 L 577 337 L 576 338 L 576 342 L 575 343 L 574 342 L 574 329 L 575 328 L 575 327 L 574 326 L 574 322 L 573 321 L 573 319 L 571 317 L 571 316 L 570 316 L 561 307 L 560 307 L 559 306 L 559 305 L 558 305 L 556 303 L 556 302 L 555 302 L 551 298 L 551 297 L 549 295 L 549 294 L 548 293 L 547 293 L 547 294 L 548 295 L 548 296 L 550 298 L 550 299 L 551 300 L 551 301 L 554 304 L 554 305 L 560 311 L 561 311 L 563 313 L 563 314 L 566 317 L 567 317 L 568 318 L 568 319 L 569 320 L 569 321 L 570 322 L 570 325 L 571 326 L 571 330 L 572 331 L 572 343 L 573 344 L 573 368 L 572 369 L 572 374 L 571 375 L 571 379 L 570 380 L 569 380 L 568 381 L 567 381 L 566 382 L 564 382 L 561 379 L 561 378 L 560 378 L 560 382 L 559 383 L 555 383 L 553 381 L 553 376 L 552 377 L 552 380 L 551 381 L 548 381 L 545 378 L 545 377 L 544 376 L 544 374 L 545 373 L 545 371 L 549 367 L 549 365 L 550 364 L 550 361 L 551 360 L 551 353 L 550 352 L 550 347 L 549 346 L 549 341 L 548 340 L 548 336 L 547 335 L 547 334 L 546 333 L 546 330 L 545 329 L 545 328 L 544 327 L 544 324 L 543 323 L 543 320 L 542 319 L 542 317 L 541 316 L 541 314 L 540 313 L 540 311 L 539 310 L 539 309 L 538 308 L 538 306 L 537 305 L 537 304 L 536 303 L 536 301 L 535 300 L 535 299 L 534 298 L 534 295 L 533 294 L 533 291 L 532 290 L 532 287 L 531 286 L 531 282 L 530 281 L 530 276 L 529 275 L 529 256 L 530 255 L 530 243 L 531 242 L 531 234 L 530 233 L 529 233 L 529 235 L 528 236 L 528 244 L 527 245 L 527 258 L 526 259 L 526 271 L 527 272 L 527 276 L 528 277 L 528 283 L 529 284 L 529 290 L 530 291 L 530 293 L 531 294 L 531 297 L 532 298 L 532 300 L 533 301 L 533 303 L 534 304 L 534 305 L 535 306 L 535 308 L 536 309 L 536 311 L 537 312 L 537 314 L 538 315 L 538 317 L 539 318 L 539 320 L 540 321 L 540 323 L 541 324 L 541 326 L 542 327 L 542 329 L 543 330 L 543 332 L 544 333 L 544 335 L 545 336 L 545 340 L 546 341 L 546 344 L 547 345 L 547 350 L 548 351 L 548 361 L 547 362 L 547 364 L 546 365 L 546 366 L 544 368 L 544 369 L 542 371 L 542 378 L 543 379 L 543 381 L 545 383 L 547 383 L 548 384 L 551 384 L 552 385 L 566 385 L 567 384 L 568 384 L 569 383 L 571 383 L 577 389 L 579 389 L 580 390 L 589 390 L 590 391 L 593 391 L 594 390 L 599 390 L 600 389 L 601 389 L 605 385 L 605 381 L 607 379 L 643 379 L 644 378 L 648 378 L 649 377 L 652 377 L 653 376 L 655 376 L 656 375 L 658 375 L 659 374 L 660 374 L 662 372 L 663 372 L 668 367 L 668 366 L 669 365 L 669 363 L 670 362 L 670 360 L 671 359 L 671 346 L 670 345 L 670 339 L 669 338 L 669 334 L 668 333 L 668 331 L 667 330 L 667 327 L 666 326 L 666 324 L 665 323 L 665 322 L 664 321 L 664 320 L 663 319 L 663 317 L 662 316 L 662 315 L 661 314 L 661 313 L 660 312 L 660 310 L 659 309 L 659 308 L 658 307 L 658 306 L 657 305 L 657 304 L 655 302 L 655 301 L 654 300 L 654 299 L 653 298 L 653 297 L 651 295 L 651 294 L 650 293 L 650 292 L 648 290 L 648 289 L 646 287 L 646 286 L 645 285 L 645 283 L 644 282 L 644 278 L 643 277 L 643 274 L 642 273 L 642 271 L 641 270 L 641 268 L 640 267 L 640 264 L 639 263 L 639 260 L 638 259 L 638 256 L 637 255 L 637 253 L 636 252 L 636 250 L 635 249 L 635 248 L 634 247 L 634 245 L 633 244 L 633 242 L 631 240 L 631 239 L 630 238 L 630 236 L 629 235 L 629 234 L 628 233 L 628 232 L 626 230 L 626 229 L 625 228 L 625 227 L 624 226 L 624 225 L 622 223 L 622 222 L 621 221 L 621 220 L 620 219 L 620 218 L 618 216 L 618 215 L 616 213 L 616 212 L 615 211 L 615 210 L 613 208 L 613 207 L 611 205 L 611 204 L 608 201 L 607 201 Z" fill="black"/>
<path d="M 552 196 L 551 197 L 549 197 L 548 198 L 547 198 L 546 199 L 545 199 L 543 201 L 542 201 L 541 202 L 541 203 L 542 204 L 544 204 L 545 205 L 547 205 L 548 206 L 549 206 L 552 209 L 552 211 L 551 212 L 551 213 L 550 214 L 550 215 L 549 216 L 548 216 L 545 219 L 538 219 L 538 220 L 539 220 L 540 221 L 544 221 L 545 220 L 546 220 L 547 219 L 548 219 L 552 215 L 552 214 L 555 211 L 567 211 L 568 210 L 569 210 L 570 209 L 571 209 L 574 206 L 574 205 L 575 204 L 574 203 L 569 208 L 568 208 L 567 209 L 564 209 L 563 210 L 554 210 L 551 207 L 551 204 L 552 203 L 552 202 L 553 201 L 553 199 L 554 198 L 554 196 Z" fill="black"/>
<path d="M 530 194 L 528 196 L 527 196 L 526 197 L 524 197 L 523 198 L 519 198 L 518 197 L 517 198 L 519 198 L 520 199 L 525 199 L 526 198 L 528 198 L 529 197 L 530 197 L 531 196 L 532 196 L 532 195 L 531 194 Z" fill="black"/>
<path d="M 599 180 L 599 182 L 600 183 L 600 184 L 601 185 L 600 186 L 599 186 L 598 187 L 593 187 L 592 188 L 589 188 L 588 189 L 586 189 L 585 190 L 583 190 L 582 191 L 580 191 L 579 192 L 578 192 L 580 192 L 581 191 L 583 191 L 584 190 L 587 190 L 588 189 L 591 189 L 592 188 L 601 188 L 602 189 L 602 191 L 603 192 L 603 193 L 606 196 L 605 197 L 604 197 L 603 196 L 587 196 L 586 197 L 582 197 L 581 198 L 579 198 L 586 198 L 587 197 L 607 197 L 608 198 L 610 198 L 611 199 L 613 199 L 613 198 L 611 198 L 610 197 L 609 197 L 607 195 L 607 194 L 606 193 L 606 192 L 605 191 L 605 190 L 604 189 L 604 188 L 605 187 L 616 187 L 615 186 L 604 186 L 603 185 L 603 183 L 601 181 L 601 180 Z" fill="black"/>
<path d="M 566 172 L 565 173 L 565 174 L 560 179 L 558 179 L 557 180 L 555 180 L 554 181 L 553 181 L 553 184 L 554 184 L 554 183 L 555 182 L 558 182 L 559 181 L 560 181 L 561 180 L 562 180 L 565 177 L 565 176 L 566 175 L 566 173 L 567 172 Z" fill="black"/>
<path d="M 483 172 L 482 173 L 481 173 L 481 175 L 482 176 L 482 177 L 484 179 L 484 180 L 488 184 L 488 185 L 489 185 L 497 193 L 497 194 L 498 194 L 499 195 L 499 196 L 503 200 L 503 201 L 504 202 L 504 203 L 505 204 L 506 204 L 508 206 L 508 209 L 510 211 L 510 212 L 509 213 L 508 213 L 507 214 L 505 214 L 504 215 L 503 215 L 502 216 L 500 216 L 503 216 L 504 215 L 506 215 L 507 214 L 511 214 L 513 216 L 513 218 L 511 220 L 510 220 L 508 222 L 507 222 L 506 223 L 505 223 L 503 225 L 502 225 L 501 226 L 501 227 L 502 226 L 503 226 L 505 224 L 506 224 L 507 223 L 508 223 L 509 222 L 510 222 L 511 221 L 512 221 L 513 220 L 515 220 L 519 224 L 513 230 L 513 231 L 511 233 L 511 234 L 510 235 L 510 237 L 511 236 L 511 235 L 521 225 L 523 227 L 524 227 L 527 230 L 528 230 L 529 231 L 532 231 L 533 232 L 537 232 L 538 231 L 539 231 L 538 231 L 537 230 L 535 230 L 534 229 L 532 229 L 531 228 L 530 228 L 529 227 L 528 227 L 527 226 L 526 226 L 524 224 L 524 223 L 526 221 L 527 221 L 529 219 L 530 219 L 531 218 L 530 218 L 529 219 L 528 219 L 527 220 L 526 220 L 525 221 L 524 221 L 523 222 L 521 222 L 518 219 L 518 218 L 519 217 L 520 217 L 521 216 L 523 216 L 524 215 L 527 215 L 528 214 L 530 214 L 530 213 L 529 213 L 528 214 L 525 214 L 524 215 L 522 215 L 521 216 L 519 216 L 518 217 L 517 217 L 515 215 L 515 213 L 516 212 L 518 212 L 519 211 L 523 211 L 524 210 L 527 210 L 528 209 L 529 209 L 528 209 L 527 210 L 519 210 L 518 211 L 513 211 L 512 210 L 512 209 L 511 208 L 511 206 L 510 205 L 510 204 L 509 203 L 508 203 L 507 202 L 507 200 L 506 199 L 506 198 L 497 189 L 496 189 L 489 182 L 489 181 L 486 178 L 486 176 L 487 175 L 488 176 L 506 176 L 507 175 L 509 175 L 510 174 L 511 174 L 512 173 L 512 172 L 508 172 L 507 173 L 500 173 L 499 172 L 498 172 L 497 173 L 490 173 L 489 172 Z" fill="black"/>
<path d="M 402 147 L 397 152 L 397 153 L 395 155 L 395 156 L 394 157 L 394 158 L 393 159 L 393 160 L 392 161 L 392 163 L 391 164 L 391 165 L 390 166 L 390 168 L 389 169 L 389 171 L 388 172 L 388 175 L 387 176 L 387 179 L 386 180 L 386 184 L 385 185 L 385 191 L 384 192 L 384 199 L 383 200 L 383 222 L 382 223 L 382 225 L 381 226 L 381 230 L 380 231 L 380 233 L 379 234 L 379 237 L 378 238 L 378 241 L 377 242 L 377 244 L 376 245 L 376 247 L 375 248 L 375 250 L 374 251 L 374 253 L 373 254 L 373 256 L 372 257 L 372 258 L 371 259 L 371 261 L 370 262 L 370 264 L 369 265 L 369 267 L 368 268 L 368 269 L 367 270 L 367 271 L 366 272 L 366 274 L 365 275 L 365 277 L 364 278 L 364 279 L 363 280 L 363 282 L 362 283 L 362 285 L 361 286 L 361 288 L 360 289 L 360 292 L 359 293 L 359 297 L 358 298 L 358 303 L 357 304 L 357 319 L 358 320 L 358 324 L 359 325 L 359 328 L 360 329 L 360 331 L 361 332 L 361 333 L 362 334 L 362 335 L 363 336 L 363 337 L 366 340 L 366 341 L 370 345 L 370 346 L 369 347 L 365 347 L 364 348 L 360 348 L 359 349 L 357 349 L 356 350 L 355 350 L 354 351 L 353 351 L 352 352 L 351 352 L 351 353 L 349 355 L 349 356 L 348 357 L 348 362 L 350 364 L 351 364 L 352 365 L 352 367 L 353 367 L 354 368 L 356 368 L 357 369 L 359 369 L 360 370 L 363 370 L 364 371 L 386 371 L 387 370 L 391 370 L 392 369 L 393 369 L 370 369 L 369 368 L 365 368 L 364 367 L 361 367 L 360 366 L 359 366 L 358 365 L 358 364 L 356 362 L 355 362 L 353 360 L 354 359 L 354 358 L 353 358 L 352 357 L 352 356 L 354 354 L 355 354 L 356 353 L 357 353 L 358 352 L 359 352 L 360 351 L 364 351 L 365 350 L 369 350 L 370 349 L 376 349 L 378 351 L 379 351 L 380 352 L 381 352 L 382 353 L 383 353 L 384 354 L 385 354 L 386 355 L 387 355 L 388 356 L 390 356 L 391 357 L 393 357 L 394 358 L 397 358 L 396 357 L 395 357 L 394 356 L 393 356 L 391 354 L 390 354 L 389 353 L 388 353 L 387 352 L 386 352 L 385 351 L 384 351 L 382 349 L 381 349 L 378 346 L 377 346 L 370 339 L 370 338 L 367 335 L 367 334 L 366 333 L 366 332 L 365 331 L 365 330 L 364 329 L 364 328 L 363 327 L 363 325 L 362 324 L 362 322 L 361 321 L 361 314 L 360 313 L 360 307 L 361 306 L 361 299 L 362 298 L 362 294 L 363 293 L 363 290 L 364 289 L 364 288 L 365 287 L 365 284 L 366 283 L 366 281 L 367 280 L 367 278 L 368 277 L 368 276 L 369 275 L 369 274 L 370 273 L 370 271 L 371 270 L 371 269 L 372 268 L 372 266 L 373 265 L 373 264 L 374 263 L 374 261 L 375 260 L 375 258 L 376 257 L 376 255 L 377 254 L 377 252 L 378 251 L 378 250 L 379 249 L 379 246 L 380 245 L 380 243 L 381 242 L 381 238 L 382 237 L 382 234 L 384 232 L 385 233 L 385 238 L 386 239 L 386 242 L 387 243 L 387 245 L 388 246 L 388 247 L 389 247 L 389 243 L 388 242 L 388 235 L 387 234 L 387 224 L 386 223 L 386 200 L 387 199 L 387 191 L 388 190 L 388 184 L 389 183 L 389 180 L 390 179 L 390 175 L 391 174 L 391 172 L 392 171 L 392 168 L 393 167 L 393 166 L 394 165 L 394 163 L 395 162 L 395 161 L 396 160 L 396 158 L 397 157 L 397 156 L 399 154 L 399 152 L 401 150 L 401 149 L 402 148 Z" fill="black"/>
<path d="M 459 135 L 459 136 L 461 138 L 461 139 L 463 141 L 463 142 L 465 144 L 465 145 L 467 147 L 467 148 L 469 150 L 469 151 L 478 160 L 479 160 L 482 163 L 483 163 L 484 164 L 485 164 L 486 165 L 487 165 L 488 166 L 490 166 L 491 167 L 495 167 L 495 165 L 496 164 L 498 164 L 500 166 L 503 166 L 504 167 L 517 167 L 518 166 L 520 166 L 521 165 L 522 165 L 524 163 L 524 162 L 523 163 L 522 163 L 521 164 L 518 164 L 517 163 L 517 160 L 514 163 L 513 163 L 512 164 L 504 164 L 503 163 L 502 163 L 499 160 L 497 160 L 495 162 L 491 162 L 490 161 L 487 161 L 486 160 L 484 160 L 482 158 L 481 158 L 470 147 L 470 146 L 467 143 L 467 142 L 465 140 L 465 139 L 462 136 L 461 136 L 460 135 Z" fill="black"/>
<path d="M 559 112 L 558 113 L 558 114 L 557 115 L 557 116 L 556 117 L 556 118 L 555 119 L 555 121 L 554 122 L 554 123 L 553 124 L 553 125 L 552 126 L 552 127 L 551 128 L 551 129 L 550 130 L 550 131 L 549 132 L 549 134 L 548 135 L 548 137 L 547 138 L 547 143 L 548 143 L 548 142 L 549 141 L 549 140 L 550 139 L 550 138 L 551 137 L 551 136 L 552 135 L 552 134 L 553 133 L 553 131 L 554 130 L 554 128 L 555 127 L 555 126 L 556 125 L 556 123 L 557 122 L 557 120 L 559 118 L 559 117 L 561 115 L 563 115 L 568 120 L 568 121 L 571 124 L 571 125 L 573 127 L 573 128 L 574 129 L 574 130 L 576 132 L 576 134 L 577 135 L 577 136 L 578 137 L 578 139 L 579 140 L 579 141 L 580 142 L 580 143 L 581 144 L 581 146 L 582 147 L 582 148 L 583 149 L 583 151 L 584 152 L 584 153 L 585 154 L 585 155 L 588 158 L 588 159 L 590 161 L 590 162 L 593 165 L 593 166 L 594 167 L 594 168 L 596 170 L 596 171 L 597 172 L 597 173 L 598 174 L 599 174 L 600 175 L 600 176 L 599 177 L 596 177 L 595 178 L 594 178 L 593 179 L 591 179 L 590 180 L 589 180 L 588 181 L 587 181 L 586 182 L 585 182 L 584 183 L 583 183 L 582 184 L 581 184 L 580 185 L 579 185 L 578 186 L 577 186 L 573 190 L 574 190 L 576 188 L 577 188 L 579 186 L 580 186 L 581 185 L 582 185 L 584 183 L 586 183 L 587 182 L 588 182 L 589 181 L 590 181 L 591 180 L 592 180 L 593 179 L 595 179 L 596 178 L 598 178 L 599 177 L 602 177 L 603 176 L 605 176 L 606 175 L 610 175 L 611 174 L 615 174 L 608 174 L 607 175 L 603 175 L 598 170 L 598 169 L 596 167 L 596 166 L 594 164 L 594 163 L 593 162 L 593 161 L 591 159 L 591 158 L 590 157 L 590 156 L 588 154 L 588 153 L 586 151 L 586 149 L 584 147 L 584 145 L 583 144 L 583 142 L 582 141 L 582 139 L 581 138 L 581 136 L 580 135 L 580 134 L 579 133 L 579 131 L 577 129 L 577 128 L 576 127 L 576 126 L 574 124 L 574 123 L 570 119 L 570 118 L 564 112 Z" fill="black"/>
<path d="M 521 110 L 521 119 L 522 120 L 522 124 L 523 125 L 523 127 L 524 128 L 524 129 L 525 130 L 525 132 L 526 133 L 526 134 L 527 135 L 527 137 L 528 138 L 528 140 L 527 141 L 526 141 L 525 140 L 521 140 L 520 139 L 516 139 L 515 140 L 511 140 L 509 142 L 509 147 L 510 148 L 510 149 L 511 150 L 511 151 L 512 152 L 512 153 L 515 156 L 516 156 L 517 157 L 524 157 L 525 156 L 526 156 L 527 155 L 528 155 L 530 153 L 530 152 L 531 151 L 531 149 L 532 148 L 532 147 L 533 146 L 533 144 L 532 143 L 532 140 L 531 139 L 531 137 L 530 136 L 530 135 L 529 134 L 529 133 L 528 132 L 528 130 L 527 129 L 527 126 L 526 125 L 526 123 L 525 122 L 525 120 L 524 119 L 524 117 L 523 116 L 523 114 L 522 113 L 522 111 Z" fill="black"/>
<path d="M 525 97 L 524 98 L 524 99 L 523 100 L 523 103 L 525 105 L 526 104 L 527 104 L 528 103 L 528 98 L 527 97 Z" fill="black"/>
<path d="M 488 94 L 487 95 L 484 95 L 483 96 L 481 96 L 481 97 L 483 99 L 483 100 L 485 102 L 486 102 L 487 103 L 490 103 L 491 102 L 492 102 L 493 101 L 493 99 L 494 98 L 493 97 L 493 96 L 491 94 Z" fill="black"/>
<path d="M 533 50 L 532 51 L 533 52 L 533 53 L 534 54 L 534 55 L 535 56 L 535 57 L 536 58 L 536 59 L 538 61 L 538 62 L 540 64 L 540 65 L 542 67 L 542 68 L 543 69 L 543 70 L 544 71 L 544 72 L 545 73 L 545 77 L 546 78 L 546 99 L 547 100 L 547 109 L 548 110 L 548 113 L 549 113 L 549 76 L 548 75 L 548 72 L 547 71 L 547 69 L 546 68 L 546 67 L 545 66 L 545 65 L 543 63 L 543 62 L 541 60 L 541 59 L 535 53 L 535 52 Z" fill="black"/>
<path d="M 470 22 L 469 23 L 465 23 L 464 24 L 461 24 L 460 25 L 458 25 L 457 26 L 454 26 L 453 27 L 452 27 L 451 28 L 449 28 L 447 30 L 446 30 L 445 31 L 444 31 L 443 32 L 442 32 L 441 33 L 440 33 L 439 34 L 437 34 L 436 35 L 435 35 L 434 36 L 433 36 L 431 38 L 430 38 L 427 41 L 426 41 L 423 44 L 422 44 L 419 47 L 418 47 L 416 49 L 415 49 L 413 51 L 412 51 L 406 57 L 406 58 L 404 60 L 404 61 L 403 62 L 403 63 L 402 64 L 402 67 L 401 68 L 401 75 L 402 76 L 402 82 L 403 83 L 403 84 L 404 85 L 404 86 L 405 87 L 405 88 L 406 89 L 406 90 L 408 92 L 408 93 L 411 96 L 411 97 L 412 98 L 412 99 L 413 100 L 413 101 L 412 102 L 412 105 L 411 106 L 411 110 L 410 111 L 410 114 L 409 115 L 409 119 L 408 120 L 408 123 L 407 124 L 407 125 L 406 126 L 406 128 L 405 129 L 405 134 L 404 135 L 404 136 L 400 140 L 400 141 L 398 143 L 398 144 L 399 145 L 400 144 L 401 144 L 408 137 L 408 136 L 411 133 L 411 131 L 408 134 L 407 133 L 407 132 L 409 130 L 409 128 L 410 127 L 410 126 L 412 124 L 412 123 L 413 122 L 413 119 L 412 118 L 412 115 L 413 114 L 413 102 L 414 101 L 415 101 L 416 102 L 416 103 L 417 104 L 417 105 L 418 106 L 418 107 L 419 108 L 419 109 L 420 110 L 420 111 L 421 112 L 421 113 L 422 114 L 422 116 L 423 117 L 423 118 L 424 119 L 424 121 L 425 122 L 425 124 L 427 126 L 427 127 L 428 127 L 430 129 L 431 129 L 432 130 L 434 130 L 435 131 L 439 131 L 440 130 L 442 130 L 443 129 L 444 129 L 445 128 L 446 128 L 450 124 L 450 123 L 452 121 L 452 120 L 453 119 L 453 118 L 454 117 L 454 116 L 455 115 L 455 114 L 456 113 L 456 111 L 457 110 L 457 108 L 458 107 L 458 104 L 459 103 L 459 96 L 460 95 L 460 72 L 461 71 L 461 66 L 462 65 L 462 63 L 463 62 L 463 60 L 464 59 L 464 57 L 463 57 L 462 58 L 462 59 L 460 61 L 460 62 L 459 63 L 459 65 L 458 66 L 458 69 L 457 70 L 457 91 L 456 92 L 456 103 L 455 104 L 455 107 L 454 108 L 454 110 L 453 111 L 453 112 L 452 113 L 452 115 L 451 116 L 451 117 L 449 119 L 449 120 L 448 121 L 448 122 L 444 126 L 443 126 L 441 128 L 439 128 L 438 129 L 433 129 L 429 125 L 429 124 L 428 123 L 428 122 L 427 121 L 427 119 L 426 118 L 426 116 L 425 115 L 425 113 L 424 112 L 424 111 L 423 110 L 423 108 L 422 107 L 422 106 L 421 105 L 421 104 L 420 103 L 420 102 L 417 99 L 417 98 L 414 95 L 414 94 L 411 91 L 411 90 L 410 89 L 410 88 L 408 86 L 408 85 L 407 84 L 407 82 L 406 81 L 406 80 L 405 79 L 405 68 L 406 67 L 406 64 L 408 62 L 408 61 L 409 60 L 409 59 L 413 55 L 414 55 L 417 52 L 418 52 L 420 50 L 421 50 L 424 47 L 425 47 L 429 43 L 430 43 L 434 39 L 436 39 L 437 38 L 439 38 L 440 37 L 447 37 L 448 38 L 453 38 L 454 39 L 456 39 L 457 40 L 458 40 L 459 41 L 460 41 L 461 42 L 462 42 L 464 44 L 465 44 L 466 45 L 467 44 L 465 42 L 464 42 L 462 40 L 461 40 L 460 39 L 456 39 L 455 38 L 454 38 L 453 37 L 451 37 L 450 36 L 445 36 L 444 35 L 446 33 L 447 33 L 448 32 L 449 32 L 450 31 L 451 31 L 452 30 L 454 30 L 455 29 L 456 29 L 457 28 L 459 28 L 460 27 L 462 27 L 463 26 L 467 26 L 468 25 L 471 25 L 472 24 L 490 24 L 491 25 L 493 25 L 494 26 L 496 26 L 497 27 L 498 27 L 499 28 L 501 28 L 502 29 L 503 29 L 504 30 L 505 30 L 507 32 L 508 32 L 510 34 L 511 34 L 521 44 L 521 45 L 522 46 L 522 47 L 524 49 L 524 50 L 526 52 L 526 53 L 527 54 L 527 56 L 528 57 L 528 60 L 529 61 L 529 64 L 530 65 L 530 71 L 531 72 L 531 78 L 532 79 L 532 85 L 533 86 L 533 90 L 534 91 L 534 92 L 533 93 L 533 96 L 532 97 L 532 98 L 531 99 L 531 102 L 530 103 L 530 105 L 529 106 L 529 107 L 528 108 L 528 111 L 528 110 L 529 109 L 529 108 L 530 107 L 531 108 L 531 109 L 532 110 L 532 112 L 533 113 L 533 114 L 534 115 L 534 116 L 536 118 L 536 119 L 538 121 L 539 121 L 540 122 L 546 122 L 545 121 L 543 121 L 536 114 L 536 113 L 535 112 L 535 110 L 534 109 L 534 106 L 533 105 L 533 102 L 534 101 L 534 97 L 535 96 L 535 86 L 534 85 L 534 77 L 533 76 L 533 67 L 532 66 L 532 60 L 531 59 L 531 56 L 530 55 L 530 54 L 529 53 L 529 52 L 528 51 L 528 50 L 527 49 L 527 48 L 526 47 L 526 46 L 525 45 L 525 44 L 516 35 L 515 35 L 512 32 L 511 32 L 510 31 L 509 31 L 507 29 L 506 29 L 505 28 L 504 28 L 503 27 L 502 27 L 501 26 L 499 26 L 498 25 L 496 25 L 495 24 L 493 24 L 492 23 L 489 23 L 488 22 Z" fill="black"/>
</svg>